<svg xmlns="http://www.w3.org/2000/svg" xmlns:xlink="http://www.w3.org/1999/xlink" width="135" zoomAndPan="magnify" viewBox="0 0 101.25 573.749966" height="765" preserveAspectRatio="xMidYMid meet" version="1.0"><defs><g/></defs><g fill="#ffffff" fill-opacity="1"><g transform="translate(17.133019, 101.97258)"><g><path d="M 66.625 -76.375 L 66.625 -40.28125 L 48.4375 -76.375 Z M 20.40625 0 L 20.40625 -76.375 L 47.609375 -76.375 L 47.609375 0 Z M 1.5 -76.375 L 19.578125 -76.375 L 1.5 -40.28125 Z M 1.5 -76.375 "/></g></g></g><g fill="#ffffff" fill-opacity="1"><g transform="translate(20.162172, 249.643759)"><g><path d="M 30.15625 0 L 3.40625 0 L 3.40625 -76.375 L 30.15625 -76.375 Z M 32.375 -76.375 L 58.828125 -76.375 L 58.828125 -46.9375 Z M 48.75 -24.015625 L 32.078125 -39.765625 L 48.75 -55.515625 Z M 32.375 0 L 59.234375 -34.390625 L 59.234375 0 Z M 32.375 0 "/></g></g></g><g fill="#ffffff" fill-opacity="1"><g transform="translate(20.540816, 397.314938)"><g><path d="M -2.015625 0 L 15.125 -62.6875 L 20.8125 -32.796875 L 27.375 -32.796875 L 18.953125 -76.375 L 46.21875 -76.375 L 61.046875 0 L 33.828125 0 L 28.765625 -25.921875 L 22.203125 -25.921875 L 27.265625 0 Z M -2.015625 0 "/></g></g></g><g fill="#ffffff" fill-opacity="1"><g transform="translate(8.589863, 544.986118)"><g><path d="M 61.96875 0 L 46.21875 -61.5625 L 50.140625 -76.375 L 67.703125 -76.375 L 87.078125 0 Z M -2.015625 0 L 10.6875 -49.0625 L 23.296875 0 Z M 29.84375 0 L 14.046875 -61.5625 L 17.96875 -76.375 L 35.53125 -76.375 L 55 0 Z M 29.84375 0 "/></g></g></g></svg>